<svg width="12" height="12" viewBox="0 0 12 12" fill="none" xmlns="http://www.w3.org/2000/svg">
<path fill-rule="evenodd" clip-rule="evenodd" d="M6.44053 10.4865L6.44053 6.27729H10.5595C10.8027 6.27729 11 6.07569 11 5.8271C11 5.57851 10.8027 5.37692 10.5595 5.37692H6.44053V1.16771C6.44053 0.919121 6.24326 0.717529 6 0.717529C5.75674 0.717529 5.55947 0.919121 5.55947 1.16771V5.37692L1.44053 5.37692C1.19727 5.37692 1 5.57851 1 5.8271C1 6.07569 1.19727 6.27729 1.44053 6.27729L5.55947 6.27729L5.55947 10.4865C5.55947 10.7351 5.75674 10.9367 6 10.9367C6.24326 10.9367 6.44053 10.7351 6.44053 10.4865Z" stroke="#1EA4CE"/>
</svg>
